<svg width="14" height="24" viewBox="0 0 14 24" fill="none" xmlns="http://www.w3.org/2000/svg">
<path d="M3.80405 12L13.6532 21.8468C13.8762 22.0697 14.0014 22.3722 14.0014 22.6875C14.0014 23.0028 13.8762 23.3053 13.6532 23.5283C13.4302 23.7512 13.1278 23.8765 12.8124 23.8765C12.4971 23.8765 12.1947 23.7512 11.9717 23.5283L1.28418 12.8408C1.17359 12.7304 1.08585 12.5994 1.02598 12.4551C0.966118 12.3109 0.935303 12.1562 0.935303 12C0.935303 11.8438 0.966118 11.6891 1.02598 11.5449C1.08585 11.4006 1.17359 11.2696 1.28418 11.1593L11.9717 0.471754C12.1947 0.248774 12.4971 0.123505 12.8124 0.123505C13.1278 0.123505 13.4302 0.248774 13.6532 0.471754C13.8762 0.694735 14.0014 0.997162 14.0014 1.3125C14.0014 1.62785 13.8762 1.93027 13.6532 2.15325L3.80405 12Z" fill="#1D9BF0"/>
</svg>
